<?xml version="1.0" standalone="no"?><!DOCTYPE svg PUBLIC "-//W3C//DTD SVG 1.1//EN" "http://www.w3.org/Graphics/SVG/1.1/DTD/svg11.dtd"><svg t="1654444511045" class="icon" viewBox="0 0 1024 1024" version="1.1" xmlns="http://www.w3.org/2000/svg" p-id="1322" width="128" height="128" xmlns:xlink="http://www.w3.org/1999/xlink"><defs><style type="text/css">@font-face { font-family: feedback-iconfont; src: url("//at.alicdn.com/t/font_1031158_u69w8yhxdu.woff2?t=1630033759944") format("woff2"), url("//at.alicdn.com/t/font_1031158_u69w8yhxdu.woff?t=1630033759944") format("woff"), url("//at.alicdn.com/t/font_1031158_u69w8yhxdu.ttf?t=1630033759944") format("truetype"); }
</style></defs><path d="M266.88 162.432c2.218667-1.365333 4.266667-2.688 6.101333-3.925333A425.088 425.088 0 0 1 512 85.333333c235.648 0 426.666667 191.018667 426.666667 426.666667a424.832 424.832 0 0 1-64.554667 225.749333 13.738667 13.738667 0 0 1-23.637333-0.597333l-107.52-193.450667A21.333333 21.333333 0 0 1 761.6 512H853.333333A341.333333 341.333333 0 0 0 309.973333 236.8a38.144 38.144 0 0 1-55.893333-12.202667l-2.389333-4.266666a43.306667 43.306667 0 0 1 15.189333-57.898667zM751.36 865.28A425.002667 425.002667 0 0 1 512 938.666667C276.352 938.666667 85.333333 747.648 85.333333 512c0-79.957333 22.016-154.794667 60.245334-218.752a18.346667 18.346667 0 0 1 31.786666 0.469333l103.68 186.581334A21.333333 21.333333 0 0 1 262.4 512H170.666667a341.333333 341.333333 0 0 0 543.616 274.944 39.893333 39.893333 0 0 1 58.112 11.52 46.250667 46.250667 0 0 1-14.976 62.848 224.341333 224.341333 0 0 0-5.973334 3.925333z" fill="#5D6E7F" p-id="1323"></path></svg>